<svg xmlns="http://www.w3.org/2000/svg" width="326" height="318" viewBox="0 0 326 318">
  <defs>
    <style>
      .cls-1, .cls-2 {
        fill: #fff;
        stroke: #1250a4;
        stroke-linejoin: round;
        fill-rule: evenodd;
      }

      .cls-1 {
        stroke-width: 10px;
      }

      .cls-2 {
        stroke-width: 5px;
      }
    </style>
  </defs>
  <path id="_2" data-name="2" class="cls-1" d="M264,251.875q-18.808,12.51-36.152,17.188-17.36,4.688-44.473,4.687a363.276,363.276,0,0,1-36.875-1.719q-16.875-1.713-35-5.156a88.433,88.433,0,0,0,12.5-12.5l38.125-38.125q13.74-13.74,21.914-22.187t13.525-14.688q5.363-6.24,13.565-15.625,20.816-24.375,30.283-43.75t9.463-38.75a71.225,71.225,0,0,0-7.568-32.5,76.964,76.964,0,0,0-21.455-25.937A101.446,101.446,0,0,0,188.8,5.938,140.342,140.342,0,0,0,147.125,0a180.631,180.631,0,0,0-36.563,3.437A134.583,134.583,0,0,0,77.75,15L39.625,71.875q24.99-14.37,45.313-20.312a149.643,149.643,0,0,1,42.188-5.937q26.25,0,41.562,13.125T184,93.75A57.872,57.872,0,0,1,181.812,110q-2.2,7.5-9.375,18.125A303.055,303.055,0,0,1,151.5,154.688q-13.755,15.938-36.875,40.937-35.01,37.5-54.062,58.438Q41.49,275.009,30.875,286.25,20.24,297.5,14.313,303.438,8.365,309.384.25,317.5H264V251.875Z"/>
  <path id="e" class="cls-2" d="M210.4,159.5q3.6-16.8,14.55-25.95t27.15-9.15q33.3,0,40.2,35.1H210.4Zm115.2,19.8v-5.1a69.342,69.342,0,0,0-5.4-27.6,66.2,66.2,0,0,0-37.8-36.3,79.317,79.317,0,0,0-28.8-5.1q-32.1,0-52.8,18.3a79.949,79.949,0,0,0-18.9,26.7,78.552,78.552,0,0,0-6.9,32.1,73.645,73.645,0,0,0,6.6,31.35,71.458,71.458,0,0,0,18.45,24.45A85.789,85.789,0,0,0,228.4,254a110.618,110.618,0,0,0,36.3,5.7,145.368,145.368,0,0,0,23.25-1.65,98.242,98.242,0,0,0,20.55-5.85l17.1-30.3a93.509,93.509,0,0,1-24.9,12.83,91.755,91.755,0,0,1-28.2,3.97q-28.8,0-45.45-15.68T209.2,179.3H325.6Z"/>
</svg>
